<?xml version="1.0" encoding="UTF-8"?>
<svg id="Camada_3" data-name="Camada 3" xmlns="http://www.w3.org/2000/svg" xmlns:xlink="http://www.w3.org/1999/xlink" viewBox="0 0 1080 1080">
  <defs>
    <style>
      .cls-1 {
        fill: #142959;
      }

      .cls-2 {
        fill: #ff7900;
      }

      .cls-3 {
        fill: #bababa;
      }

      .cls-4 {
        fill: #fff;
      }

      .cls-5 {
        fill: #131313;
      }

      .cls-6 {
        fill: none;
      }

      .cls-7 {
        clip-path: url(#clippath-1);
      }

      .cls-8 {
        fill: #bfbfbf;
      }

      .cls-9 {
        fill: #0f1b43;
      }

      .cls-10 {
        fill: #00010c;
      }

      .cls-11 {
        fill: #162d6d;
      }

      .cls-12 {
        fill: #545454;
      }

      .cls-13 {
        fill: #d4d4d4;
      }

      .cls-14 {
        fill: #a1a1a1;
      }

      .cls-15 {
        clip-path: url(#clippath);
      }
    </style>
    <clipPath id="clippath">
      <path class="cls-6" d="M332.76,751.77c2.3-.29,3.45-.43,5.76-.71-.14-23.18-.28-46.35-.42-69.53-2.14,1.28-3.21,1.93-5.34,3.25,0-7.54,0-11.3,0-18.84,19.56-14.79,40.04-27.47,62.03-38.33,5.94,3.38,11.79,7.21,17.31,11.24.67,21.35,1.34,42.7,2.01,64.05-3.97,5.35-8,10.67-12.11,15.92,3.01,8.33,5.96,16.68,8.85,25.05,2.55-.2,3.82-.29,6.38-.48.28,9.07.57,18.15.85,27.22h-37.62c-.23-8.02-.46-16.03-.69-24.05,1.67-.16,2.5-.24,4.17-.39-2.3-6.24-4.65-12.46-7.04-18.67-5.35.95-8.02,1.45-13.35,2.48.17,7.27.26,10.91.43,18.18,2.32-.25,3.48-.37,5.81-.6.2,7.69.4,15.38.59,23.06-12.54,0-25.08,0-37.62,0,0-7.54,0-11.3,0-18.84ZM388.15,697.69c-.39-12.68-.77-25.36-1.16-38.04-8.4,3.43-16.68,7.15-24.82,11.15.27,11.41.53,22.81.8,34.22,8.33-2.64,16.73-5.08,25.18-7.33ZM415.22,743.54c1.81-.13,2.72-.2,4.53-.33,4.51-34.1,8.88-68.22,13.18-102.34-1.7.48-2.55.72-4.24,1.21-.28-9.4-.56-18.81-.84-28.21,16.95-5.79,33.94-10.37,51.5-13.89,8.24,46.37,16.04,92.81,23.49,139.31,1.83-.04,2.75-.06,4.58-.1.12,10.47.24,20.94.36,31.41-11.2,0-22.4,0-33.59,0-.21-10.13-.43-20.26-.64-30.4,1.42-.06,2.13-.08,3.55-.14-.79-5.4-1.18-8.1-1.97-13.48-9.49.56-18.98,1.17-28.46,1.93-.53,5.23-.8,7.84-1.33,13.04,1.42-.08,2.12-.12,3.54-.2.26,9.75.53,19.49.79,29.24h-33.59c-.28-9.02-.57-18.05-.85-27.07ZM469.63,693.23c-3.01-18.57-6.08-37.13-9.2-55.68-1.38.28-2.07.42-3.45.71-2.15,19.08-4.3,38.17-6.44,57.25,6.35-.86,12.72-1.62,19.09-2.28ZM509.42,735.66c15.46-.28,30.92-.38,46.38-.29.05-11.75.1-23.5.15-35.24-11.4-.21-22.81-.12-34.2.16-5.84-7.16-11.76-14.25-17.78-21.25-.25-20.32-.5-40.65-.74-60.97,5.89-7.79,11.82-15.55,17.81-23.27,20.19-1.02,40.09-.52,60.2,1.51-1.8,11.48-3.57,22.96-5.32,34.44-15.19-1.06-30.28-1.44-45.51-1.15.05,11.75.09,23.5.14,35.26,11.59-.23,23.19-.16,34.77.34,5.79,7.52,11.53,15.07,17.25,22.64-.26,20.3-.51,40.6-.77,60.91-5.81,7.24-11.55,14.54-17.24,21.88h-59.46c1.43-11.65,2.88-23.3,4.33-34.95ZM584.66,748.78c.59-43.41,1.18-86.82,1.77-130.23,5.89-6.39,11.91-12.67,18.08-18.79,19.88,3.91,39.09,9.22,58.15,16.09-1.91,9.85-3.8,19.71-5.67,29.57-14.52-4-29.08-7.32-43.9-10.01-.71,33.8-1.42,67.61-2.13,101.41,8.91.39,17.81.86,26.71,1.4.31-11.34.62-22.68.93-34.02-4.75-.59-7.13-.87-11.89-1.39,1.85-10.77,3.71-21.53,5.61-32.29,11.14,1.92,22.24,4.14,33.23,6.79-.76,24.69-1.53,49.38-2.29,74.08-6.05,6.28-11.95,12.7-17.73,19.23-14.67,0-29.34,0-44.01,0-5.65-7.25-11.25-14.53-16.84-21.83ZM661.48,742.94c1.81.13,2.72.19,4.54.32,6.12-30.59,12.45-61.13,19.02-91.62-1.65-.62-2.48-.93-4.14-1.54.28-8.82.56-17.63.84-26.45,16.63,7.66,32.4,16.26,47.85,26.07,5.26,33.99,11.1,67.86,18.31,101.49,1.78.22,2.67.33,4.44.55v18.84c-11.2,0-22.4,0-33.59,0,.18-7.55.37-15.1.55-22.65,1.39.15,2.09.22,3.48.37-.57-4.03-.86-6.06-1.43-10.16-9.27-1.43-18.56-2.73-27.86-3.93-.8,4.39-1.21,6.6-2.01,11.04,1.4.12,2.11.18,3.51.31-.25,8.34-.51,16.67-.76,25.01h-33.59c.28-9.22.57-18.45.85-27.67ZM717.37,711.98c-2.18-15.57-4.27-31.16-6.28-46.76-1.29-.58-1.93-.87-3.23-1.44-3,14.51-5.96,29.03-8.88,43.56,7.4,1.75,11.08,2.67,18.39,4.63Z"/>
    </clipPath>
    <clipPath id="clippath-1">
      <path class="cls-6" d="M425.64,649.4,669.71,611.83l-4.97-1.79c-19.45-7.01-38.77-12.35-59.05-16.34l-3.21-.63-2.32,2.31c-4.91,4.87-9.92,10.04-14.94,15.41.71-4.6,1.41-9.1,2.11-13.53l1.01-6.43-6.48-.65c-13.52-1.36-27.19-2.06-40.63-2.06-6.77,0-13.67.17-20.5.52l-42.59,5.31c-17.89,3.58-35,8.2-52.28,14.1l-4.31,1.47-19.36-52.39,104.99-49.64,115.14,18.14,42.63,43.46,4.76,42.76Z"/>
    </clipPath>
  </defs>
  <g>
    <path class="cls-4" d="M426.84,650.82c-9.99-2.81-18.76-8.78-25.05-17.3-9.4-12.72-12.1-29.64-7.7-47.83-.88-7.15-.21-13.55,1.52-19.19-12.8,3.94-27.34,6.57-43.29,6.57-11.44,0-22.92-1.41-34.13-4.19l-65.58-16.27,39.5-13.64c-8.79-3.78-16.94-8.6-24.42-14.43l-37.98-29.64,31.64-3.96c-1.64-1.18-3.25-2.4-4.84-3.66l-37.19-29.6,10.94-1.37c-11.25-9.56-21.56-21.62-30.5-35.76l-7.33-11.61c-15.07-13.74-34.72-39.37-45.15-84.46l-11.54-49.86,12.97,8.84c-4.26-17.84-5.95-39.01-.92-61.74l9.54-43.12,6.16,8.4c.59-11.2,2.38-22.06,5.38-32.48l14.17-49.3,22.94,45.88c2.2,4.29,26.16,41.51,66.82,79.39,36.48,33.99,95.38,76.65,170.64,89.38l18.2-40.65,5.14,18.7,17.43,33.19c5.98-3.74,13.31-7.35,21.71-9.59l2.04-.55-17.35-18,42.37,11.32,42.38-11.32-17.35,18,2.04.54c8.4,2.24,15.73,5.85,21.71,9.59l17.42-33.18,5.14-18.7,18.2,40.65c75.26-12.74,134.15-55.39,170.64-89.38,40.66-37.88,64.62-75.11,66.83-79.42l22.95-45.7,14.15,49.14c3,10.42,4.79,21.28,5.38,32.49l6.16-8.41,9.54,43.12c5.03,22.72,3.34,43.9-.92,61.74l12.97-8.84-11.54,49.86c-10.43,45.09-30.08,70.72-45.15,84.46l-7.33,11.61c-8.93,14.14-19.25,26.2-30.5,35.77l10.94,1.37-37.19,29.6c-1.58,1.26-3.2,2.48-4.84,3.66l31.64,3.96-37.98,29.64c-7.48,5.83-15.64,10.65-24.42,14.43l39.5,13.64-65.58,16.27c-11.21,2.78-22.69,4.19-34.13,4.19-15.96,0-30.49-2.64-43.29-6.57,1.73,5.64,2.39,12.05,1.52,19.2,4.4,18.2,1.69,35.12-7.7,47.83-6.3,8.52-15.06,14.5-25.06,17.3"/>
    <path class="cls-2" d="M440.95,642.62c-.26,0-.52,0-.78,0-12.21,0-23.26-5.49-30.33-15.06-7.94-10.74-9.88-25.34-5.57-41.34-3.24-19.84,8.04-32.2,18.82-37.19,1.7-3.12,4.22-6.44,7.65-9.05-.1-.25-.19-.5-.29-.75-15.2,9.82-43.03,23.82-78.14,23.82-10.62,0-21.3-1.31-31.72-3.9l-32.79-8.13,31.93-11.03c1.95-.67,3.84-1.4,5.67-2.17-16.08-2.25-34.71-8.03-51.57-21.18l-18.99-14.82,23.9-2.99c5.2-.65,10.05-1.38,14.55-2.15-9.89-3.66-20.38-9.12-30.57-17.24l-18.6-14.8,13.94-1.74c-18.43-9.11-35.89-25.59-49.87-47.71l-8.07-12.78c-15.28-13.56-33.32-37.8-43.12-80.2l-5.77-24.93,16.64,11.35c-9.57-21.15-17.76-51.23-10.35-84.76l4.77-21.56,12.89,17.57c-3.41-22.19-2.33-43.14,3.27-62.61l7.08-24.65,11.47,22.94c2.23,4.44,26.68,42.86,68.94,82.24,38.43,35.81,101.14,80.98,181.66,92.85l1.8.27,9.93-22.19,6.49,23.61,1.33-12.13,13.5,25.72c5.92-4.89,15.63-11.52,27.8-14.77l18.45-4.93-4.19-4.35,10.23,2.73,10.24-2.73-4.19,4.35,18.44,4.92c12.17,3.25,21.88,9.88,27.8,14.77l13.5-25.72,1.33,12.12,6.49-23.61,9.94,22.19,1.8-.27c80.51-11.87,143.23-57.05,181.66-92.85,42.27-39.38,66.72-77.8,68.94-82.24l11.48-22.86,7.07,24.57c5.6,19.47,6.68,40.42,3.27,62.61l12.89-17.57,4.77,21.56c7.42,33.53-.78,63.62-10.35,84.76l16.64-11.35-5.77,24.93c-9.81,42.4-27.85,66.64-43.12,80.2l-8.07,12.78c-13.97,22.12-31.44,38.59-49.87,47.71l13.94,1.74-18.6,14.8c-10.19,8.11-20.68,13.58-30.57,17.24,4.51.77,9.36,1.5,14.55,2.15l23.9,2.99-18.99,14.82c-16.86,13.15-35.49,18.93-51.56,21.18,1.83.77,3.72,1.5,5.66,2.17l31.93,11.03-32.79,8.13c-10.42,2.59-21.1,3.9-31.72,3.9-35.11,0-62.94-14-78.13-23.82-.09.25-.19.5-.29.75,3.43,2.61,5.95,5.93,7.65,9.05,10.78,5,22.06,17.35,18.82,37.19,4.32,16,2.37,30.6-5.56,41.34-7.07,9.57-18.12,15.06-30.33,15.06-.26,0-.52,0-.78,0"/>
    <g>
      <g>
        <g>
          <path class="cls-14" d="M424.22,348.66c-137.99-19.61-226.71-149.02-226.71-149.02,0,0-6.37,64.21,59.07,99.75-24.91-17.66-33.33-42.4-33.33-42.4,0,0,62.5,63.48,121.57,83.33,0,0-13.73.74-36.27-7.84,39.22,23.53,77.2,30.15,77.2,30.15,0,0-13.48,5.88-51.96-4.17,18.87,22.3,53.19,29.17,53.19,29.17,0,0-.74,4.66-25.49.98,12.74,13.73,36.76,18.78,36.76,18.78,0,0-3.19,2.79-9.31,3.03,23.53,29.17,53.19,37.5,53.19,37.5,0,0-60.54-49.63-17.89-99.26Z"/>
          <path class="cls-2" d="M503.69,417.41s-8.36-9.74-18.38-10.02c-1.38,17.37,14.61,15.53,18.38,10.02Z"/>
          <path class="cls-2" d="M562.21,417.41c3.77,5.51,19.76,7.35,18.38-10.02-10.02.28-18.38,10.02-18.38,10.02Z"/>
          <path class="cls-14" d="M676.98,410.42c-6.13-.25-9.31-3.03-9.31-3.03,0,0,24.02-5.06,36.76-18.78-24.75,3.68-25.49-.98-25.49-.98,0,0,34.31-6.86,53.19-29.17-38.48,10.05-51.96,4.17-51.96,4.17,0,0,37.99-6.62,77.2-30.15-22.55,8.58-36.27,7.84-36.27,7.84,59.07-19.85,121.57-83.33,121.57-83.33,0,0-8.42,24.74-33.33,42.4,65.44-35.54,59.07-99.75,59.07-99.75,0,0-88.72,129.41-226.71,149.02,42.65,49.63-17.89,99.26-17.89,99.26,0,0,29.66-8.33,53.19-37.5Z"/>
        </g>
        <path class="cls-14" d="M462.95,365.45s3.19,17.4,17.86,28.89c-2.85,1.19-5.61,4.41-5.61,4.41,0,0,13.6-4.87,25.83.64-6.16,0-10.48.83-10.48.83,14.8.92,21.97,14.48,24.22,14.25,2.25-.23,1.06-4.72,1.06-4.72,0,0,3.63,5.02,7.9,5.02,3.55,0,7.78-7.66-4.11-18.2-1.69-1.07-3-1.84-3-1.84-15.56-10.54-36.27-3.06-53.68-29.29Z"/>
        <path class="cls-14" d="M585.1,394.34c14.68-11.49,17.86-28.89,17.86-28.89-17.4,26.23-38.11,18.75-53.68,29.29h0s-1.31.77-3,1.84h0c-11.89,10.54-7.66,18.2-4.11,18.2,4.27,0,7.9-5.02,7.9-5.02,0,0-1.19,4.49,1.06,4.72,2.25.23,9.42-13.33,24.22-14.25,0,0-4.32-.83-10.48-.83,12.22-5.51,25.83-.64,25.83-.64,0,0-2.76-3.22-5.61-4.41Z"/>
      </g>
      <g>
        <path class="cls-13" d="M581.15,546.45c-7.84,10.66-34.56,21.81-48.19,38.97-13.64-17.16-40.35-28.31-48.19-38.97.37,17.16,20.1,33.82,20.1,33.82,0,0-13.97-3.55-19.24-10.91,13.24,27.21,31,23.53,47.34,39.95,16.33-16.42,34.1-12.75,47.34-39.95-5.27,7.35-19.24,10.91-19.24,10.91,0,0,19.73-16.67,20.1-33.82Z"/>
        <path class="cls-13" d="M392.36,503.8s-8.23,3.05-23.04,1.65c38.97-22.06,50.98-45.53,50.98-45.53,0,0-52.45,44.61-101.96,54.17,57.6,9.31,74.02-10.29,74.02-10.29Z"/>
        <path class="cls-13" d="M355.47,463.49c24.33-17.95,28.74-39.28,28.74-39.28,0,0-39.71,38.05-88.79,50.92,47.43,18.01,85.29-15.99,85.29-15.99,0,0-9.56,3.98-25.24,4.35Z"/>
        <path class="cls-13" d="M357.06,539.83c37.99,1.23,70.34-28.06,70.34-28.06,0,0-6.74,2.82-13.85,3.43,10.66-11.03,17.03-31.49,17.03-31.49,0,0-26.96,40.2-73.53,56.13Z"/>
        <path class="cls-13" d="M257.56,351.97c-12.99-4.78-30.15-28.19-30.15-28.19,38.23,18.5,79.78,28.19,79.78,28.19-65.07-21.32-129.04-95.22-129.04-95.22,0,0,4.17,36.52,20.34,58.09,16.18,21.57,59.07,37.13,59.07,37.13Z"/>
        <path class="cls-13" d="M299.47,408.95c-18.38-1.96-32.9-13.6-32.9-13.6,0,0,46.14,4.04,79.23-5.51-87.13,1.84-158.45-47.79-158.45-47.79,0,0,19.24,73.04,112.13,66.91Z"/>
        <path class="cls-13" d="M353.88,428.56s-11.24,3.17-26.23,3.92c28.43-12.01,36.76-27.21,36.76-27.21-53.19,31.37-124.02,15.99-124.02,15.99,51.22,31.03,81.13,31.03,113.48,7.29Z"/>
        <path class="cls-13" d="M466.38,423.11s-8.95,17.83-1.47,35.11c-.83-4.78,2.76-10.11,2.76-10.11,5.93,18.12,17.71,32.6,36.49,42.74,0,0-2.57-5.42.55-12.13,5.97,7.72,20.42,9.56,28.25,23.62,7.83-14.07,22.28-15.9,28.25-23.62,3.12,6.71.55,12.13.55,12.13,18.78-10.13,30.56-24.62,36.49-42.74,0,0,3.58,5.33,2.76,10.11,7.48-17.28-1.47-35.11-1.47-35.11,0,0,6.8-.74,9.68-5.88-9.56,1.53-14.77-5.58-14.77-5.58,0,0-.06,12.25-9.5,16.91,3.68-3.49,3.62-9.01,3.62-9.01-8.58,15.87-21.37,8.48-24.39,8.39-3.25-.1-.92,6,4.17,6.31,0,0-7.72-.74-11.09-4.41l4.04,5.64c-9.33,9.41-18.79,23.33-28.34,40.38-9.55-17.05-19.01-30.97-28.34-40.38l4.04-5.64c-3.37,3.68-11.09,4.41-11.09,4.41,5.09-.31,7.41-6.41,4.17-6.31-3.02.09-15.81,7.48-24.39-8.39,0,0-.06,5.51,3.62,9.01-9.44-4.66-9.5-16.91-9.5-16.91,0,0-5.21,7.11-14.77,5.58,2.88,5.15,9.68,5.88,9.68,5.88Z"/>
        <path class="cls-13" d="M710.44,463.49c-15.69-.37-25.24-4.35-25.24-4.35,0,0,37.87,34.01,85.29,15.99-49.08-12.87-88.79-50.92-88.79-50.92,0,0,4.41,21.32,28.74,39.28Z"/>
        <path class="cls-13" d="M635.31,483.71s6.37,20.47,17.03,31.49c-7.11-.61-13.85-3.43-13.85-3.43,0,0,32.35,29.29,70.34,28.06-46.57-15.93-73.53-56.13-73.53-56.13Z"/>
        <path class="cls-13" d="M696.59,505.46c-14.81,1.4-23.04-1.65-23.04-1.65,0,0,16.42,19.61,74.02,10.29-49.51-9.56-101.96-54.17-101.96-54.17,0,0,12.01,23.47,50.98,45.53Z"/>
        <path class="cls-13" d="M701.49,405.28s8.33,15.2,36.76,27.21c-14.99-.75-26.23-3.92-26.23-3.92,32.35,23.74,62.25,23.74,113.48-7.29,0,0-70.83,15.38-124.02-15.99Z"/>
        <path class="cls-13" d="M720.12,389.83c33.09,9.56,79.23,5.51,79.23,5.51,0,0-14.52,11.64-32.9,13.6,92.89,6.13,112.13-66.91,112.13-66.91,0,0-71.32,49.63-158.45,47.79Z"/>
        <path class="cls-13" d="M758.72,351.97s41.54-9.68,79.78-28.19c0,0-17.16,23.41-30.15,28.19,0,0,42.89-15.56,59.07-37.13,16.18-21.57,20.34-58.09,20.34-58.09,0,0-63.97,73.9-129.04,95.22Z"/>
        <path class="cls-13" d="M609.82,455.15c-13.48,43.99-51.1,52.33-51.1,52.33,0,0,9.83-8.18,10.94-14.89-11.12,13.33-23.07,5.06-36.71,23.99-13.64-18.93-25.58-10.66-36.71-23.99,1.1,6.71,10.94,14.89,10.94,14.89,0,0-37.62-8.33-51.1-52.33-11.27,8.46-14.71,25.49-14.71,25.49,0,0,2.16-3.52,8.09-7.48-7.6,18.99,5.51,24.88,7.11,45.71-3.68-7.48-8.95-10.66-8.95-10.66,0,0,3.49,28.12,30.76,48.65-18.5-30.02-6.37-34.68-11.52-45.83-5.15-11.15-2.94-21.81-2.94-21.81,4.78,21.81,28.31,24.39,37.62,42.89-1.72-2.43-21.76-8.59-27.21-14.09,8.95,25.74,37.01,23.28,58.61,49.75,21.6-26.47,49.67-24.02,58.61-49.75-5.45,5.5-25.48,11.66-27.21,14.09,9.31-18.5,32.84-21.08,37.62-42.89,0,0,2.21,10.66-2.94,21.81-5.15,11.15,6.99,15.81-11.52,45.83,27.27-20.53,30.76-48.65,30.76-48.65,0,0-5.27,3.19-8.95,10.66,1.59-20.83,14.71-26.72,7.11-45.71,5.92,3.96,8.09,7.48,8.09,7.48,0,0-3.43-17.03-14.71-25.49Z"/>
        <path class="cls-13" d="M549.29,394.74h0s0,0,0,0c6.95-11.15,22.59-7.8,28.43-23.16,0,0-4.66,3.65-9.62,3.92-1.47-6.07-14.61-12.87-14.61-12.87,0,0,2.02,2.39,1.47,6.34-7.08-7.44-22-9.01-22-9.01,0,0-14.92,1.56-22,9.01-.55-3.95,1.47-6.34,1.47-6.34,0,0-13.14,6.8-14.61,12.87-4.96-.28-9.62-3.92-9.62-3.92,5.84,15.36,21.48,12.01,28.43,23.16,0,0,1.31.77,3,1.84,4.96.8,6.49,5.64,13.33,5.64s8.37-4.84,13.33-5.64h0c1.69-1.07,3-1.84,3-1.84Z"/>
      </g>
      <g>
        <path class="cls-3" d="M473.27,613.64c6.13-4.64,5.67-19.94,0-33.09-6.21-14.4-18.37-26.36-27.21-22.79-9.1,3.68-4.55,27.52,6.1,29.63,0,0-10.56-17.9-.08-24.89-2.88,2.25-1.02,7-1.02,7,0,0,7.17-2.63,8.98,7.57-7.54-5.79-5.24,8.64,2.02,17.74-6.08,0-12.85-2.16-18.12-6.98-.08,5.33,8.28,11.11,8.28,11.11-9.67,6.65-19.15,5.74-28.49-1.32-1.38,14.74,10.29,29.72,28.06,21.38-16.79-1.96-15.69-14.46-15.69-14.46.49,1.96,2.55,3.72,5.76,4.53,1.84-6.99,18.14-11.15,21.94-3.43,0,0,2.71-.18,2.25-5.47,7.22,11.53-4.64,11.72-4.64,11.72,0,0,6.35,5.91,11.86,1.75Z"/>
        <path class="cls-3" d="M442.94,597.09c-9.65-5.7-9.83-18.2-9.83-18.2,0,0,2.39,4.82,4.96,6.53.5-1.2,1.16-1.97,1.74-2.46-2.78-4.24-4.62-9.71-4.87-16.57-12.68,4.6-20.04,30.61,8,30.7Z"/>
        <path class="cls-3" d="M532.95,417.16s-10.65,5.15-18.05,14.22c6,4.29,18.05,25.86,18.05,25.86,0,0,12.04-21.57,18.05-25.86-7.39-9.07-18.05-14.22-18.05-14.22Z"/>
        <path class="cls-3" d="M592.64,580.55c-5.67,13.15-6.13,28.45,0,33.09,5.51,4.17,11.86-1.75,11.86-1.75,0,0-11.86-.18-4.64-11.72-.46,5.28,2.25,5.47,2.25,5.47,3.8-7.72,20.1-3.55,21.94,3.43,3.21-.81,5.27-2.57,5.76-4.53,0,0,1.1,12.5-15.69,14.46,17.77,8.33,29.44-6.65,28.06-21.38-9.34,7.06-18.83,7.97-28.49,1.32,0,0,8.36-5.78,8.28-11.11-5.26,4.82-12.04,6.98-18.12,6.98,7.26-9.1,9.56-23.53,2.02-17.74,1.81-10.2,8.98-7.57,8.98-7.57,0,0,1.86-4.75-1.02-7,10.48,6.99-.08,24.89-.08,24.89,10.65-2.11,15.2-25.95,6.1-29.63-8.84-3.57-20.99,8.4-27.21,22.79Z"/>
        <path class="cls-3" d="M627.84,585.42c2.57-1.71,4.96-6.53,4.96-6.53,0,0-.18,12.5-9.83,18.2,28.03-.09,20.68-26.1,8-30.7-.25,6.86-2.09,12.33-4.87,16.57.58.49,1.25,1.25,1.74,2.46Z"/>
      </g>
      <g>
        <path class="cls-8" d="M526.38,405.06c1.91,3.24-4.67,9.36-12.51-.15.8,1.41,1.04,4.23,1.04,4.23,0,0-6.19-6.62-13.36-9.56,2.08-.49,4.6-.31,4.6-.31-11.27-6.13-22.24-5.09-22.24-5.09,1.65-1.23,3.68-1.96,3.68-1.96-5.51-2.08-17.16-10.85-24.63-26.78-.64,9.23,2.03,18.5,7.48,27.82l.98,11.18c23.65-4.38,40.56,13.45,40.56,13.45,0,0,12.03,4.9,16.91-1.84,4.88-6.74-4.41-14.25-2.5-11Z"/>
        <path class="cls-8" d="M429.86,344.74l-47.09-5.51s-88.81-10.79-173.55-109.87c.55,9.74,2.57,17.46,2.57,17.46-12.87-18.01-14.28-47.18-14.28-47.18,0,0-29.07,97.55,147.3,140.68,0,0,34.35,10.55,53.74,13.66-39.71,6.43-90.01-21.51-90.01-21.51,13.75,21.29,41.41,29.53,77.2,30.15,0,0,14.09.18,20.34-1.29,0,0-23.53,21.32-64.34,7.54-47.43-8.64,33.46,18.75,45.22,18.75,0,0,9.93.58,13.6.38-10.29,8.26-37.32,9.18-37.32,9.18,0,0,26.23,10.29,34.99,10.2,5.45.74,9.87,0,9.87,0,0,0,1.19,8.36,5.79,13.97-9.47.64-23.44-5.15-23.44-5.15,0,0,24.94,40.96,54.59,36.09-48.28-66.63-15.2-107.56-15.2-107.56Z"/>
        <path class="cls-8" d="M578.33,392.22s2.02.74,3.68,1.96c0,0-10.97-1.04-22.24,5.09,0,0,2.51-.18,4.6.31-7.17,2.94-13.36,9.56-13.36,9.56,0,0,.25-2.82,1.04-4.23-7.84,9.51-14.42,3.39-12.51.15,1.91-3.24-7.38,4.26-2.5,11,4.88,6.74,16.91,1.84,16.91,1.84,0,0,16.91-17.83,40.56-13.45l.98-11.18c5.45-9.32,8.11-18.59,7.48-27.82-7.48,15.93-19.12,24.69-24.63,26.78Z"/>
        <path class="cls-8" d="M868.4,199.64s-1.41,29.17-14.28,47.18c0,0,2.02-7.72,2.57-17.46-84.74,99.08-173.55,109.87-173.55,109.87l-47.09,5.51s33.09,40.93-15.2,107.56c29.66,4.87,54.59-36.09,54.59-36.09,0,0-13.97,5.79-23.44,5.15,4.6-5.61,5.79-13.97,5.79-13.97,0,0,4.41.74,9.87,0,8.76.09,34.99-10.2,34.99-10.2,0,0-27.02-.92-37.32-9.18,3.68.2,13.6-.38,13.6-.38,11.76,0,92.65-27.39,45.22-18.75-40.81,13.79-64.34-7.54-64.34-7.54,6.25,1.47,20.34,1.29,20.34,1.29,35.79-.62,63.46-8.86,77.2-30.15,0,0-50.31,27.94-90.01,21.51,19.38-3.11,53.74-13.66,53.74-13.66,176.37-43.13,147.3-140.68,147.3-140.68Z"/>
      </g>
      <g>
        <g>
          <path d="M511.6,613.18l-20.4-5.33-28.68,42.28s7.87-7.92,15.81-12.32"/>
          <path d="M499.59,386.04c10.05,2.33,17.03,8.7,17.03,8.7,0,0,1.53.93,3,1.84,1.32.81,13.33,7.87,13.33,7.87,0,0,12.01-7.06,13.33-7.87,1.47-.9,3-1.84,3-1.84,0,0,6.99-6.37,17.03-8.7,10.05-2.33,11.4-14.46,11.4-14.46,0,0-5.09,7.41-15.5,10.66,0,0,1.53-2.21,1.23-4.35-2.21,2.7-6.74,6.19-16.61,9.5,0,0,5.09-4.53,4.72-12.13-1.59,5.88-14.34,14.22-18.6,14.22s-17.01-8.33-18.6-14.22c-.37,7.6,4.72,12.13,4.72,12.13-9.87-3.31-14.4-6.8-16.61-9.5-.31,2.14,1.23,4.35,1.23,4.35-10.42-3.25-15.5-10.66-15.5-10.66,0,0,1.35,12.13,11.4,14.46Z"/>
          <path d="M485.23,483.71l47.73,24.51,47.73-24.51,25.71-23.01,2.82-43.47s-5.22,4.37-11.29,3.45c0,0,3.91,12.36,0,20.82,0,0,.38-7.05-4.4-11.34-2.45,13.48-16.67,26.23-16.67,26.23,0,0,3.43-7.47.86-13.54-8.39,6.8-10.42,27.39-28.92,34.13,0,0,8.33-7.23,9.68-13.24-13.93,10.83-22.47,13.41-25.52,18.38-3.06-4.97-11.59-7.55-25.52-18.38,1.35,6,9.68,13.24,9.68,13.24-18.5-6.74-20.53-27.33-28.92-34.13-2.57,6.07.86,13.54.86,13.54,0,0-14.22-12.75-16.67-26.23-4.78,4.29-4.4,11.34-4.4,11.34-3.91-8.46,0-20.82,0-20.82-6.07.92-11.29-3.45-11.29-3.45l2.82,43.47,25.71,23.01ZM590.71,449.94s-2.57,15.17-20.04,25c1.47-8.27,14.89-17.65,20.04-25ZM495.24,474.94c-17.46-9.83-20.04-25-20.04-25,5.15,7.35,18.57,16.73,20.04,25Z"/>
          <path d="M587.58,637.81c7.94,4.39,15.81,12.32,15.81,12.32l-28.68-42.28-20.4,5.33"/>
          <polyline points="541.81 628.07 532.95 637.63 524.1 628.07"/>
          <path d="M619.87,465.57c2.33,7.08,1.35,13.85,1.35,13.85l-4.78-6.25c.07,19.85-15.45,25.85-12.99,55.88,1.47-4.29,5.88-10.17,5.88-10.17,1.84-4.41,5.91-9.93,5.91-9.93-6.34,23.28-21.66,36.79-21.66,36.79,0,0-3.86-27.72,2.64-36.18,6.5-8.46,5.76-20.34,5.76-20.34-18.02,27.84-59.07,33.46-69.03,47.85-9.96-14.4-51.01-20.02-69.03-47.85,0,0-.74,11.89,5.76,20.34,6.5,8.46,2.64,36.18,2.64,36.18,0,0-15.32-13.51-21.66-36.79,0,0,4.08,5.51,5.91,9.93,0,0,4.41,5.88,5.88,10.17,2.46-30.03-13.06-36.03-12.99-55.88l-4.78,6.25s-.98-6.76,1.35-13.85c2.33-7.08-7.6,3.31-7.6,12.01s5.15,48.04,5.15,48.04l43.62,67.16,45.75,26.47,45.75-26.47,43.62-67.16s5.15-39.34,5.15-48.04-9.93-19.09-7.6-12.01ZM532.95,549.46c2.54-3.52,16.3-8.23,24.3-14.4-3.12,8.92-19.78,16.63-24.3,22.61-4.51-5.98-21.17-13.69-24.3-22.61,8,6.18,21.76,10.89,24.3,14.4ZM478.88,519.06s19.21,8.46,22.67,13.05c3.46,4.6,4.63,9.56,4.63,9.56-3.22-4.41-22.06-15.07-27.3-22.61ZM576.49,571.82c-14.09,20.68-33.13,19.85-43.54,31-10.41-11.15-29.44-10.32-43.54-31-9.9-17.29,5.3,4.04,15.44,8.46,5.36,6.71,23.72,12.87,28.1,17.83,4.38-4.96,22.74-11.12,28.1-17.83,10.14-4.41,25.34-25.74,15.44-8.46ZM581.15,546.45c-18.27,32.16-39.34,36.76-48.19,46.14-8.86-9.37-29.93-13.98-48.19-46.14-2.63-6.97,48.19,29.41,48.19,29.41,0,0,50.82-36.38,48.19-29.41ZM559.73,541.67s1.16-4.96,4.63-9.56c3.46-4.6,22.67-13.05,22.67-13.05-5.24,7.54-24.08,18.2-27.3,22.61Z"/>
        </g>
        <g>
          <path d="M284.39,335.61s-43.93-7.17-77.39-36.03c0,0,10.69,25.32,24.08,34.37-15.81-5.51-38.79-21.87-38.79-21.87,0,0,70.04,71.32,132.54,75.37,0,0-45.19,5.43-90.26-3.49,0,0,13.05,10.29,27.76,14.89-17.83.95-46.87-9.01-45.04-9.01s25.37,22.43,25.37,22.43l114.3-2.94s-28.46,20.04-64.85,25.55c0,0,19.37,3.3,34.19,2.57,0,0-23.16,11.58-36.4,11.58s26.1,13.97,26.1,13.97l58.82-30.64s-14.33,26.6-37.86,39.65c0,0,14.71-1.29,26.29-3.86-5.32,5.17-19.3,12.25-19.3,12.25l68.11-13.9s-22.7,29.56-59.47,45.29c0,0,15.27-.43,25.37-2.47,0,0-8.46,5.2-18.01,7.29-9.56,2.09,13.05,2.45,13.05,2.45l47.3-25.55s-9.94,21-23.53,31.86c0,0,11.03-3.19,17.28-6.25,0,0-3.43,8.7-8.7,12.13-5.27,3.43,33.09-16.05,33.09-16.05l-2.57-45.59-138.28-135.25-13.19,1.25Z"/>
          <path d="M781.51,335.61s43.93-7.17,77.39-36.03c0,0-10.69,25.32-24.08,34.37,15.81-5.51,38.79-21.87,38.79-21.87,0,0-70.04,71.32-132.54,75.37,0,0,45.19,5.43,90.26-3.49,0,0-13.05,10.29-27.76,14.89,17.83.95,46.87-9.01,45.04-9.01s-25.37,22.43-25.37,22.43l-114.3-2.94s28.46,20.04,64.85,25.55c0,0-19.37,3.3-34.19,2.57,0,0,23.16,11.58,36.4,11.58s-26.1,13.97-26.1,13.97l-58.82-30.64s14.33,26.6,37.86,39.65c0,0-14.71-1.29-26.29-3.86,5.32,5.17,19.3,12.25,19.3,12.25l-68.11-13.9s22.7,29.56,59.47,45.29c0,0-15.27-.43-25.37-2.47,0,0,8.46,5.2,18.01,7.29,9.56,2.09-13.05,2.45-13.05,2.45l-47.3-25.55s9.94,21,23.53,31.86c0,0-11.03-3.19-17.28-6.25,0,0,3.43,8.7,8.7,12.13,5.27,3.43-33.09-16.05-33.09-16.05l2.57-45.59,138.28-135.25,13.19,1.25Z"/>
        </g>
      </g>
      <g>
        <path d="M473.85,619.24l4.47-12.19s-1.47,3.43-5.94,4.84c7.72-13.97-7.23-54.77-21.89-46.2,0,0-.76-1.1,1.59-3.2.8-.7,1.58-1.06,1.58-1.06-6.13-2.78-17.43,2.85-4.62,24.63,2.91,5.15-12.55-10.19-12.55-10.19,0,0-1.73,1.8-2.8,4.12,0,0-.22.27-.59-1.09-1.1-2.97-.74-6.77-.74-6.77,0,0-8.44,10.75,2.4,24.02l-3.59,3.62s-1.16,17.4,18.72,20.05c19.88,2.65,1.59-3.78,1.59-3.78,0,0-.91-.16-2.29-.56-3.93-1.13-11.68-4.18-13.09-10.93l-.29-2.76,4.5.6.36-.28c-.92,1.81-1.51,4.02-1.51,6.73l34.68,10.42ZM455.1,574.7c4.96,5.51,6.07,12.38,6.07,12.38,0,0-1.9,1.47-1.59,4.84-8.44-6.47-4.47-17.22-4.47-17.22ZM452.65,594.24s-4.18.48-7.89,3.15l-2.16-7.81s6.56,4.29,10.05,4.66Z"/>
        <path class="cls-3" d="M532.95,439.74s-6.97-6.25-15.11-9.01c0,0,.41-3.17,2.02-5.42s-9.15,7.58-9.15,7.58l22.23,27.8v-20.96Z"/>
        <path d="M626.74,608.83c0-2.71-.59-4.92-1.51-6.73l.36.28,4.5-.6-.29,2.76c-1.41,6.75-9.16,9.8-13.09,10.93-1.38.4-2.29.56-2.29.56,0,0-18.29,6.43,1.59,3.78,19.88-2.65,18.72-20.05,18.72-20.05l-3.59-3.62c10.84-13.27,2.4-24.02,2.4-24.02,0,0,.37,3.8-.74,6.77-.37,1.36-.59,1.09-.59,1.09-1.08-2.31-2.8-4.12-2.8-4.12,0,0-15.45,15.34-12.55,10.19,12.81-21.78,1.5-27.4-4.62-24.63,0,0,.78.37,1.58,1.06,2.35,2.1,1.59,3.2,1.59,3.2-14.66-8.58-29.61,32.23-21.89,46.2-4.47-1.41-5.94-4.84-5.94-4.84l4.47,12.19,34.68-10.42ZM606.33,591.92c.31-3.37-1.59-4.84-1.59-4.84,0,0,1.1-6.86,6.07-12.38,0,0,3.97,10.75-4.47,17.22ZM623.3,589.59l-2.16,7.81c-3.71-2.68-7.89-3.15-7.89-3.15,3.49-.37,10.05-4.66,10.05-4.66Z"/>
        <path class="cls-3" d="M532.95,439.74s6.97-6.25,15.11-9.01c0,0-.41-3.17-2.02-5.42-1.61-2.25,9.15,7.58,9.15,7.58l-22.23,27.8v-20.96Z"/>
      </g>
      <path d="M600.63,627.42c3.49,0,5.33-1.93,5.33-1.93,22.24,17.83,57.72,1.29,45.4-38.79,5.33-24.08-15.99-29.78-15.99-29.78,0,0-3.49-11.4-14.15-11.76,6.62-9.19,8.21-22.73,8.21-22.73,0,0,48.53,43.14,113.48,27.03-21.81-7.53-37.25-21.64-37.25-21.64,0,0,44.85,8.58,80.27-19.06-42.65-5.33-62.87-15.62-62.87-15.62,0,0,38.79,6.43,73.9-21.51-8.82-1.1-27.57-10.97-27.57-10.97,27.21,3.19,57.84-15.93,79.87-50.8-4.5.09-12.78-.92-12.78-.92,0,0,45.04-12.68,62.68-88.97-8.09,5.51-27.57,13.6-27.57,13.6,0,0,40.07-48.53,27.02-107.54-10.11,13.79-27.39,29.23-27.39,29.23,12.37-34.25,14.99-66.09,6.62-95.22-4.78,9.56-98.53,156.98-258.08,180.51,0,0,52.94,49.26-2.11,95.13-1.29-5.7-4.5-11.12-4.5-11.12,0,0,8.18-6.07,8.09-19.03-6.8,6.71-21.05,2.11-18.29-11.49-2.3-.83-2.85-1.84-2.85-1.84,0,0,22.49-23.22,8.73-53.95-3.31,12.04-17.92,24.08-17.92,24.08,0,0,2.06-3.03,1.47-8.46-1.93,3.68-8.18,4.69-8.18,4.69,0,0-11.76-13.05-29.32-17.74,2.48,2.57,3.49,5.79,3.49,5.79,0,0-9.19-7.35-25.4-7.35s-25.4,7.35-25.4,7.35c0,0,1.01-3.22,3.49-5.79-17.55,4.69-29.32,17.74-29.32,17.74,0,0-6.25-1.01-8.18-4.69-.59,5.42,1.47,8.46,1.47,8.46,0,0-14.61-12.04-17.92-24.08-13.76,30.73,8.73,53.95,8.73,53.95,0,0-.55,1.01-2.85,1.84,2.76,13.6-11.49,18.2-18.29,11.49-.09,12.96,8.09,19.03,8.09,19.03,0,0-3.22,5.42-4.5,11.12-55.05-45.86-2.11-95.13-2.11-95.13-159.56-23.53-253.31-170.95-258.08-180.51-8.37,29.13-5.75,60.97,6.62,95.22,0,0-17.28-15.44-27.39-29.23-13.05,59.01,27.02,107.54,27.02,107.54,0,0-19.49-8.09-27.57-13.6,17.65,76.29,62.68,88.97,62.68,88.97,0,0-8.27,1.01-12.78.92,22.03,34.86,52.66,53.98,79.87,50.8,0,0-18.75,9.87-27.57,10.97,35.11,27.94,73.9,21.51,73.9,21.51,0,0-20.22,10.29-62.87,15.62,35.42,27.63,80.27,19.06,80.27,19.06,0,0-15.44,14.1-37.25,21.64,64.95,16.11,113.48-27.03,113.48-27.03,0,0,1.59,13.54,8.21,22.73-10.66.37-14.15,11.76-14.15,11.76,0,0-21.32,5.7-15.99,29.78-12.32,40.07,23.16,56.62,45.4,38.79,0,0,1.84,1.93,5.33,1.93M887.76,256.75s-4.17,36.52-20.34,58.09c-16.18,21.57-59.07,37.13-59.07,37.13,12.99-4.78,30.15-28.19,30.15-28.19-38.23,18.5-79.78,28.19-79.78,28.19,65.07-21.32,129.04-95.22,129.04-95.22ZM462.95,365.45c17.4,26.23,38.11,18.75,53.68,29.29-6.95-11.15-22.59-7.8-28.43-23.16,0,0,4.66,3.65,9.62,3.92,1.47-6.07,14.61-12.87,14.61-12.87,0,0-2.02,2.39-1.47,6.34,7.08-7.44,22-9.01,22-9.01,0,0,14.92,1.56,22,9.01.55-3.95-1.47-6.34-1.47-6.34,0,0,13.14,6.8,14.61,12.87,4.96-.28,9.62-3.92,9.62-3.92-5.84,15.36-21.48,12.01-28.43,23.16,15.56-10.54,36.27-3.06,53.68-29.29,0,0-3.19,17.4-17.86,28.89,2.85,1.19,5.61,4.41,5.61,4.41,0,0-13.6-4.87-25.83.64,6.16,0,10.48.83,10.48.83-14.8.92-21.97,14.48-24.22,14.25-2.25-.23-1.06-4.72-1.06-4.72,0,0-3.63,5.02-7.9,5.02-3.55,0-7.78-7.66,4.11-18.2-4.96.8-6.5,5.64-13.33,5.64s-8.37-4.84-13.33-5.64c11.89,10.54,7.66,18.2,4.11,18.2-4.27,0-7.9-5.02-7.9-5.02,0,0,1.19,4.49-1.06,4.72-2.25.23-9.42-13.33-24.22-14.25,0,0,4.32-.83,10.48-.83-12.22-5.51-25.83-.64-25.83-.64,0,0,2.76-3.22,5.61-4.41-14.68-11.49-17.86-28.89-17.86-28.89ZM562.21,417.41s8.36-9.74,18.38-10.02c1.38,17.37-14.61,15.53-18.38,10.02ZM551,431.38c-6,4.29-18.05,25.86-18.05,25.86,0,0-12.04-21.57-18.05-25.86,7.39-9.07,18.05-14.22,18.05-14.22,0,0,10.65,5.15,18.05,14.22ZM503.69,417.41c-3.77,5.51-19.76,7.35-18.38-10.02,10.02.28,18.38,10.02,18.38,10.02ZM471.46,411.65s.06,12.25,9.5,16.91c-3.68-3.49-3.62-9.01-3.62-9.01,8.58,15.87,21.37,8.48,24.39,8.39,3.25-.1.92,6-4.17,6.31,0,0,7.72-.74,11.09-4.41l-4.04,5.64c9.33,9.41,18.79,23.33,28.34,40.38,9.55-17.05,19.01-30.97,28.34-40.38l-4.04-5.64c3.37,3.68,11.09,4.41,11.09,4.41-5.09-.31-7.41-6.41-4.17-6.31,3.02.09,15.81,7.48,24.39-8.39,0,0,.06,5.51-3.62,9.01,9.44-4.66,9.5-16.91,9.5-16.91,0,0,5.21,7.11,14.77,5.58-2.88,5.15-9.68,5.88-9.68,5.88,0,0,8.95,17.83,1.47,35.11.83-4.78-2.76-10.11-2.76-10.11-5.93,18.12-17.71,32.6-36.49,42.74,0,0,2.57-5.42-.55-12.13-5.97,7.72-20.42,9.56-28.25,23.62-7.83-14.07-22.28-15.9-28.25-23.62-3.12,6.71-.55,12.13-.55,12.13-18.78-10.13-30.56-24.62-36.49-42.74,0,0-3.58,5.33-2.76,10.11-7.48-17.28,1.47-35.11,1.47-35.11,0,0-6.8-.74-9.68-5.88,9.56,1.53,14.77-5.58,14.77-5.58ZM178.15,256.75s63.97,73.9,129.04,95.22c0,0-41.54-9.68-79.78-28.19,0,0,17.16,23.41,30.15,28.19,0,0-42.89-15.56-59.07-37.13-16.18-21.57-20.34-58.09-20.34-58.09ZM187.34,342.04s71.32,49.63,158.45,47.79c-33.09,9.56-79.23,5.51-79.23,5.51,0,0,14.52,11.64,32.9,13.6-92.89,6.13-112.13-66.91-112.13-66.91ZM240.4,421.27s70.83,15.38,124.02-15.99c0,0-8.33,15.2-36.76,27.21,14.99-.75,26.23-3.92,26.23-3.92-32.35,23.74-62.25,23.74-113.48-7.29ZM295.42,475.13c49.08-12.87,88.79-50.92,88.79-50.92,0,0-4.41,21.32-28.74,39.28,15.69-.37,25.24-4.35,25.24-4.35,0,0-37.87,34.01-85.29,15.99ZM318.34,514.1c49.51-9.56,101.96-54.17,101.96-54.17,0,0-12.01,23.47-50.98,45.53,14.81,1.4,23.04-1.65,23.04-1.65,0,0-16.42,19.61-74.02,10.29ZM427.41,511.77s-32.35,29.29-70.34,28.06c46.57-15.93,73.53-56.13,73.53-56.13,0,0-6.37,20.47-17.03,31.49,7.11-.61,13.85-3.43,13.85-3.43ZM388.93,410.42c6.13-.25,9.31-3.03,9.31-3.03,0,0-24.02-5.06-36.76-18.78,24.75,3.68,25.49-.98,25.49-.98,0,0-34.31-6.86-53.19-29.17,38.48,10.05,51.96,4.17,51.96,4.17,0,0-37.99-6.62-77.2-30.15,22.55,8.58,36.27,7.84,36.27,7.84-59.07-19.85-121.57-83.33-121.57-83.33,0,0,8.42,24.74,33.33,42.4-65.44-35.54-59.07-99.75-59.07-99.75,0,0,88.72,129.41,226.71,149.02-42.65,49.63,17.89,99.26,17.89,99.26,0,0-29.66-8.33-53.19-37.5ZM434.94,566.39c.25,6.86,2.09,12.33,4.87,16.57-.58.49-1.25,1.25-1.74,2.46-2.57-1.71-4.96-6.53-4.96-6.53,0,0,.18,12.5,9.83,18.2-28.03-.09-20.68-26.1-8-30.7ZM461.41,611.89s11.86-.18,4.64-11.72c.46,5.28-2.25,5.47-2.25,5.47-3.8-7.72-20.1-3.55-21.94,3.43-3.21-.81-5.27-2.57-5.76-4.53,0,0-1.1,12.5,15.69,14.46-17.77,8.33-29.44-6.65-28.06-21.38,9.34,7.06,18.83,7.97,28.49,1.32,0,0-8.36-5.78-8.28-11.11,5.26,4.82,12.04,6.98,18.12,6.98-7.26-9.1-9.56-23.53-2.02-17.74-1.81-10.2-8.98-7.57-8.98-7.57,0,0-1.86-4.75,1.02-7-10.48,6.99.08,24.89.08,24.89-10.65-2.11-15.2-25.95-6.1-29.63,8.84-3.57,20.99,8.4,27.21,22.79,5.67,13.15,6.13,28.45,0,33.09-5.51,4.17-11.86-1.75-11.86-1.75ZM497.01,617.04,580.29,569.37c-13.24,27.21-31,23.53-47.34,39.95-16.33-16.42-34.1-12.75-47.34-39.95,5.27,7.35,19.24,10.91,19.24,10.91,0,0-19.73-16.67-20.1-33.82,7.84,10.66,34.56,21.81,48.19,38.97,13.64-17.16,40.35-28.31,48.19-38.97-.37,17.16-20.1,33.82-20.1,33.82,0,0,13.97-3.55,19.24-10.91ZM502.77,629.54,541.81,628.07,524.1,628.07,563.13,629.54,568.89,617.04,630.96,566.39c12.68,4.6,20.04,30.61-8,30.7,9.65-5.7,9.83-18.2,9.83-18.2,0,0-2.39,4.82-4.96,6.53-.5-1.2-1.16-1.97-1.74-2.46,2.78-4.24,4.62-9.71,4.87-16.57ZM613.75,587.38s10.56-17.9.08-24.89c2.88,2.25,1.02,7,1.02,7,0,0-7.17-2.63-8.98,7.57,7.54-5.79,5.24,8.64-2.02,17.74,6.08,0,12.85-2.16,18.12-6.98.08,5.33-8.28,11.11-8.28,11.11,9.67,6.65,19.15,5.74,28.49-1.32,1.38,14.74-10.29,29.72-28.06,21.38,16.79-1.96,15.69-14.46,15.69-14.46-.49,1.96-2.55,3.72-5.76,4.53-1.84-6.99-18.14-11.15-21.94-3.43,0,0-2.71-.18-2.25-5.47-7.22,11.53,4.64,11.72,4.64,11.72,0,0-6.35,5.91-11.86,1.75-6.13-4.64-5.67-19.94,0-33.09,6.21-14.4,18.37-26.36,27.21-22.79,9.1,3.68,4.55,27.52-6.1,29.63ZM616.44,473.17c7.6,18.99-5.51,24.88-7.11,45.71,3.68-7.48,8.95-10.66,8.95-10.66,0,0-3.49,28.12-30.76,48.65,18.5-30.02,6.37-34.68,11.52-45.83,5.15-11.15,2.94-21.81,2.94-21.81-4.78,21.81-28.31,24.39-37.62,42.89,1.72-2.43,21.76-8.59,27.21-14.09-8.95,25.74-37.01,23.28-58.61,49.75-21.6-26.47-49.67-24.02-58.61-49.75,5.45,5.5,25.48,11.66,27.21,14.09-9.31-18.5-32.84-21.08-37.62-42.89,0,0-2.21,10.66,2.94,21.81,5.15,11.15-6.99,15.81,11.52,45.83-27.27-20.53-30.76-48.65-30.76-48.65,0,0,5.27,3.19,8.95,10.66-1.59-20.83-14.71-26.72-7.11-45.71-5.92,3.96-8.09,7.48-8.09,7.48,0,0,3.43-17.03,14.71-25.49,13.48,43.99,51.1,52.33,51.1,52.33,0,0-9.83-8.18-10.94-14.89,11.12,13.33,23.07,5.06,36.71,23.99,13.64-18.93,25.58-10.66,36.71-23.99-1.1,6.71-10.94,14.89-10.94,14.89,0,0,37.62-8.33,51.1-52.33,11.27,8.46,14.71,25.49,14.71,25.49,0,0-2.16-3.52-8.09-7.48ZM623.79,447.92s60.54-49.63,17.89-99.26c137.99-19.61,226.71-149.02,226.71-149.02,0,0,6.37,64.21-59.07,99.75,24.91-17.66,33.33-42.4,33.33-42.4,0,0-62.5,63.48-121.57,83.33,0,0,13.73.74,36.27-7.84-39.22,23.53-77.2,30.15-77.2,30.15,0,0,13.48,5.88,51.96-4.17-18.87,22.3-53.19,29.17-53.19,29.17,0,0,.74,4.66,25.49.98-12.74,13.73-36.76,18.78-36.76,18.78,0,0,3.19,2.79,9.31,3.03-23.53,29.17-53.19,37.5-53.19,37.5ZM708.84,539.83c-37.99,1.23-70.34-28.06-70.34-28.06,0,0,6.74,2.82,13.85,3.43-10.66-11.03-17.03-31.49-17.03-31.49,0,0,26.96,40.2,73.53,56.13ZM747.57,514.1c-57.6,9.31-74.02-10.29-74.02-10.29,0,0,8.23,3.05,23.04,1.65-38.97-22.06-50.98-45.53-50.98-45.53,0,0,52.45,44.61,101.96,54.17ZM770.48,475.13c-47.43,18.01-85.29-15.99-85.29-15.99,0,0,9.56,3.98,25.24,4.35-24.33-17.95-28.74-39.28-28.74-39.28,0,0,39.71,38.05,88.79,50.92ZM712.03,428.56s11.24,3.17,26.23,3.92c-28.43-12.01-36.76-27.21-36.76-27.21,53.19,31.37,124.02,15.99,124.02,15.99-51.22,31.03-81.13,31.03-113.48,7.29ZM878.57,342.04s-19.24,73.04-112.13,66.91c18.38-1.96,32.9-13.6,32.9-13.6,0,0-46.14,4.04-79.23-5.51,87.13,1.84,158.45-47.79,158.45-47.79ZM600.63,627.42c3.49,0,5.33-1.93,5.33-1.93,22.24,17.83,57.72,1.29,45.4-38.79,5.33-24.08-15.99-29.78-15.99-29.78,0,0-3.49-11.4-14.15-11.76,6.62-9.19,8.21-22.73,8.21-22.73,0,0,48.53,43.14,113.48,27.03-21.81-7.53-37.25-21.64-37.25-21.64,0,0,44.85,8.58,80.27-19.06-42.65-5.33-62.87-15.62-62.87-15.62,0,0,38.79,6.43,73.9-21.51-8.82-1.1-27.57-10.97-27.57-10.97,27.21,3.19,57.84-15.93,79.87-50.8-4.5.09-12.78-.92-12.78-.92,0,0,45.04-12.68,62.68-88.97-8.09,5.51-27.57,13.6-27.57,13.6,0,0,40.07-48.53,27.02-107.54-10.11,13.79-27.39,29.23-27.39,29.23,12.37-34.25,14.99-66.09,6.62-95.22-4.78,9.56-98.53,156.98-258.08,180.51,0,0,52.94,49.26-2.11,95.13-1.29-5.7-4.5-11.12-4.5-11.12,0,0,8.18-6.07,8.09-19.03-6.8,6.71-21.05,2.11-18.29-11.49-2.3-.83-2.85-1.84-2.85-1.84,0,0,22.49-23.22,8.73-53.95-3.31,12.04-17.92,24.08-17.92,24.08,0,0,2.06-3.03,1.47-8.46-1.93,3.68-8.18,4.69-8.18,4.69,0,0-11.76-13.05-29.32-17.74,2.48,2.57,3.49,5.79,3.49,5.79,0,0-9.19-7.35-25.4-7.35s-25.4,7.35-25.4,7.35c0,0,1.01-3.22,3.49-5.79-17.55,4.69-29.32,17.74-29.32,17.74,0,0-6.25-1.01-8.18-4.69-.59,5.42,1.47,8.46,1.47,8.46,0,0-14.61-12.04-17.92-24.08-13.76,30.73,8.73,53.95,8.73,53.95,0,0-.55,1.01-2.85,1.84,2.76,13.6-11.49,18.2-18.29,11.49-.09,12.96,8.09,19.03,8.09,19.03,0,0-3.22,5.42-4.5,11.12-55.05-45.86-2.11-95.13-2.11-95.13-159.56-23.53-253.31-170.95-258.08-180.51-8.37,29.13-5.75,60.97,6.62,95.22,0,0-17.28-15.44-27.39-29.23-13.05,59.01,27.02,107.54,27.02,107.54,0,0-19.49-8.09-27.57-13.6,17.65,76.29,62.68,88.97,62.68,88.97,0,0-8.27,1.01-12.78.92,22.03,34.86,52.66,53.98,79.87,50.8,0,0-18.75,9.87-27.57,10.97,35.11,27.94,73.9,21.51,73.9,21.51,0,0-20.22,10.29-62.87,15.62,35.42,27.63,80.27,19.06,80.27,19.06,0,0-15.44,14.1-37.25,21.64,64.95,16.11,113.48-27.03,113.48-27.03,0,0,1.59,13.54,8.21,22.73-10.66.37-14.15,11.76-14.15,11.76,0,0-21.32,5.7-15.99,29.78-12.32,40.07,23.16,56.62,45.4,38.79,0,0,1.84,1.93,5.33,1.93M887.76,256.75s-4.17,36.52-20.34,58.09c-16.18,21.57-59.07,37.13-59.07,37.13,12.99-4.78,30.15-28.19,30.15-28.19-38.23,18.5-79.78,28.19-79.78,28.19,65.07-21.32,129.04-95.22,129.04-95.22ZM462.95,365.45c17.4,26.23,38.11,18.75,53.68,29.29-6.95-11.15-22.59-7.8-28.43-23.16,0,0,4.66,3.65,9.62,3.92,1.47-6.07,14.61-12.87,14.61-12.87,0,0-2.02,2.39-1.47,6.34,7.08-7.44,22-9.01,22-9.01,0,0,14.92,1.56,22,9.01.55-3.95-1.47-6.34-1.47-6.34,0,0,13.14,6.8,14.61,12.87,4.96-.28,9.62-3.92,9.62-3.92-5.84,15.36-21.48,12.01-28.43,23.16,15.56-10.54,36.27-3.06,53.68-29.29,0,0-3.19,17.4-17.86,28.89,2.85,1.19,5.61,4.41,5.61,4.41,0,0-13.6-4.87-25.83.64,6.16,0,10.48.83,10.48.83-14.8.92-21.97,14.48-24.22,14.25-2.25-.23-1.06-4.72-1.06-4.72,0,0-3.63,5.02-7.9,5.02-3.55,0-7.78-7.66,4.11-18.2-4.96.8-6.5,5.64-13.33,5.64s-8.37-4.84-13.33-5.64c11.89,10.54,7.66,18.2,4.11,18.2-4.27,0-7.9-5.02-7.9-5.02,0,0,1.19,4.49-1.06,4.72-2.25.23-9.42-13.33-24.22-14.25,0,0,4.32-.83,10.48-.83-12.22-5.51-25.83-.64-25.83-.64,0,0,2.76-3.22,5.61-4.41-14.68-11.49-17.86-28.89-17.86-28.89ZM562.21,417.41s8.36-9.74,18.38-10.02c1.38,17.37-14.61,15.53-18.38,10.02ZM551,431.38c-6,4.29-18.05,25.86-18.05,25.86,0,0-12.04-21.57-18.05-25.86,7.39-9.07,18.05-14.22,18.05-14.22,0,0,10.65,5.15,18.05,14.22ZM503.69,417.41c-3.77,5.51-19.76,7.35-18.38-10.02,10.02.28,18.38,10.02,18.38,10.02ZM471.46,411.65s.06,12.25,9.5,16.91c-3.68-3.49-3.62-9.01-3.62-9.01,8.58,15.87,21.37,8.48,24.39,8.39,3.25-.1.92,6-4.17,6.31,0,0,7.72-.74,11.09-4.41l-4.04,5.64c9.33,9.41,18.79,23.33,28.34,40.38,9.55-17.05,19.01-30.97,28.34-40.38l-4.04-5.64c3.37,3.68,11.09,4.41,11.09,4.41-5.09-.31-7.41-6.41-4.17-6.31,3.02.09,15.81,7.48,24.39-8.39,0,0,.06,5.51-3.62,9.01,9.44-4.66,9.5-16.91,9.5-16.91,0,0,5.21,7.11,14.77,5.58-2.88,5.15-9.68,5.88-9.68,5.88,0,0,8.95,17.83,1.47,35.11.83-4.78-2.76-10.11-2.76-10.11-5.93,18.12-17.71,32.6-36.49,42.74,0,0,2.57-5.42-.55-12.13-5.97,7.72-20.42,9.56-28.25,23.62-7.83-14.07-22.28-15.9-28.25-23.62-3.12,6.71-.55,12.13-.55,12.13-18.78-10.13-30.56-24.62-36.49-42.74,0,0-3.58,5.33-2.76,10.11-7.48-17.28,1.47-35.11,1.47-35.11,0,0-6.8-.74-9.68-5.88,9.56,1.53,14.77-5.58,14.77-5.58ZM178.15,256.75s63.97,73.9,129.04,95.22c0,0-41.54-9.68-79.78-28.19,0,0,17.16,23.41,30.15,28.19,0,0-42.89-15.56-59.07-37.13-16.18-21.57-20.34-58.09-20.34-58.09ZM187.34,342.04s71.32,49.63,158.45,47.79c-33.09,9.56-79.23,5.51-79.23,5.51,0,0,14.52,11.64,32.9,13.6-92.89,6.13-112.13-66.91-112.13-66.91ZM240.4,421.27s70.83,15.38,124.02-15.99c0,0-8.33,15.2-36.76,27.21,14.99-.75,26.23-3.92,26.23-3.92-32.35,23.74-62.25,23.74-113.48-7.29ZM295.42,475.13c49.08-12.87,88.79-50.92,88.79-50.92,0,0-4.41,21.32-28.74,39.28,15.69-.37,25.24-4.35,25.24-4.35,0,0-37.87,34.01-85.29,15.99ZM318.34,514.1c49.51-9.56,101.96-54.17,101.96-54.17,0,0-12.01,23.47-50.98,45.53,14.81,1.4,23.04-1.65,23.04-1.65,0,0-16.42,19.61-74.02,10.29ZM427.41,511.77s-32.35,29.29-70.34,28.06c46.57-15.93,73.53-56.13,73.53-56.13,0,0-6.37,20.47-17.03,31.49,7.11-.61,13.85-3.43,13.85-3.43ZM388.93,410.42c6.13-.25,9.31-3.03,9.31-3.03,0,0-24.02-5.06-36.76-18.78,24.75,3.68,25.49-.98,25.49-.98,0,0-34.31-6.86-53.19-29.17,38.48,10.05,51.96,4.17,51.96,4.17,0,0-37.99-6.62-77.2-30.15,22.55,8.58,36.27,7.84,36.27,7.84-59.07-19.85-121.57-83.33-121.57-83.33,0,0,8.42,24.74,33.33,42.4-65.44-35.54-59.07-99.75-59.07-99.75,0,0,88.72,129.41,226.71,149.02-42.65,49.63,17.89,99.26,17.89,99.26,0,0-29.66-8.33-53.19-37.5ZM434.94,566.39c.25,6.86,2.09,12.33,4.87,16.57-.58.49-1.25,1.25-1.74,2.46-2.57-1.71-4.96-6.53-4.96-6.53,0,0,.18,12.5,9.83,18.2-28.03-.09-20.68-26.1-8-30.7ZM461.41,611.89s11.86-.18,4.64-11.72c.46,5.28-2.25,5.47-2.25,5.47-3.8-7.72-20.1-3.55-21.94,3.43-3.21-.81-5.27-2.57-5.76-4.53,0,0-1.1,12.5,15.69,14.46-17.77,8.33-29.44-6.65-28.06-21.38,9.34,7.06,18.83,7.97,28.49,1.32,0,0-8.36-5.78-8.28-11.11,5.26,4.82,12.04,6.98,18.12,6.98-7.26-9.1-9.56-23.53-2.02-17.74-1.81-10.2-8.98-7.57-8.98-7.57,0,0-1.86-4.75,1.02-7-10.48,6.99.08,24.89.08,24.89-10.65-2.11-15.2-25.95-6.1-29.63,8.84-3.57,20.99,8.4,27.21,22.79,5.67,13.15,6.13,28.45,0,33.09-5.51,4.17-11.86-1.75-11.86-1.75ZM497.01,617.04,580.29,569.37c-13.24,27.21-31,23.53-47.34,39.95-16.33-16.42-34.1-12.75-47.34-39.95,5.27,7.35,19.24,10.91,19.24,10.91,0,0-19.73-16.67-20.1-33.82,7.84,10.66,34.56,21.81,48.19,38.97,13.64-17.16,40.35-28.31,48.19-38.97-.37,17.16-20.1,33.82-20.1,33.82,0,0,13.97-3.55,19.24-10.91ZM502.77,629.54,541.81,628.07,524.1,628.07,563.13,629.54,568.89,617.04,630.96,566.39c12.68,4.6,20.04,30.61-8,30.7,9.65-5.7,9.83-18.2,9.83-18.2,0,0-2.39,4.82-4.96,6.53-.5-1.2-1.16-1.97-1.74-2.46,2.78-4.24,4.62-9.71,4.87-16.57ZM613.75,587.38s10.56-17.9.08-24.89c2.88,2.25,1.02,7,1.02,7,0,0-7.17-2.63-8.98,7.57,7.54-5.79,5.24,8.64-2.02,17.74,6.08,0,12.85-2.16,18.12-6.98.08,5.33-8.28,11.11-8.28,11.11,9.67,6.65,19.15,5.74,28.49-1.32,1.38,14.74-10.29,29.72-28.06,21.38,16.79-1.96,15.69-14.46,15.69-14.46-.49,1.96-2.55,3.72-5.76,4.53-1.84-6.99-18.14-11.15-21.94-3.43,0,0-2.71-.18-2.25-5.47-7.22,11.53,4.64,11.72,4.64,11.72,0,0-6.35,5.91-11.86,1.75-6.13-4.64-5.67-19.94,0-33.09,6.21-14.4,18.37-26.36,27.21-22.79,9.1,3.68,4.55,27.52-6.1,29.63ZM616.44,473.17c7.6,18.99-5.51,24.88-7.11,45.71,3.68-7.48,8.95-10.66,8.95-10.66,0,0-3.49,28.12-30.76,48.65,18.5-30.02,6.37-34.68,11.52-45.83,5.15-11.15,2.94-21.81,2.94-21.81-4.78,21.81-28.31,24.39-37.62,42.89,1.72-2.43,21.76-8.59,27.21-14.09-8.95,25.74-37.01,23.28-58.61,49.75-21.6-26.47-49.67-24.02-58.61-49.75,5.45,5.5,25.48,11.66,27.21,14.09-9.31-18.5-32.84-21.08-37.62-42.89,0,0-2.21,10.66,2.94,21.81,5.15,11.15-6.99,15.81,11.52,45.83-27.27-20.53-30.76-48.65-30.76-48.65,0,0,5.27,3.19,8.95,10.66-1.59-20.83-14.71-26.72-7.11-45.71-5.92,3.96-8.09,7.48-8.09,7.48,0,0,3.43-17.03,14.71-25.49,13.48,43.99,51.1,52.33,51.1,52.33,0,0-9.83-8.18-10.94-14.89,11.12,13.33,23.07,5.06,36.71,23.99,13.64-18.93,25.58-10.66,36.71-23.99-1.1,6.71-10.94,14.89-10.94,14.89,0,0,37.62-8.33,51.1-52.33,11.27,8.46,14.71,25.49,14.71,25.49,0,0-2.16-3.52-8.09-7.48ZM623.79,447.92s60.54-49.63,17.89-99.26c137.99-19.61,226.71-149.02,226.71-149.02,0,0,6.37,64.21-59.07,99.75,24.91-17.66,33.33-42.4,33.33-42.4,0,0-62.5,63.48-121.57,83.33,0,0,13.73.74,36.27-7.84-39.22,23.53-77.2,30.15-77.2,30.15,0,0,13.48,5.88,51.96-4.17-18.87,22.3-53.19,29.17-53.19,29.17,0,0,.74,4.66,25.49.98-12.74,13.73-36.76,18.78-36.76,18.78,0,0,3.19,2.79,9.31,3.03-23.53,29.17-53.19,37.5-53.19,37.5ZM708.84,539.83c-37.99,1.23-70.34-28.06-70.34-28.06,0,0,6.74,2.82,13.85,3.43-10.66-11.03-17.03-31.49-17.03-31.49,0,0,26.96,40.2,73.53,56.13ZM747.57,514.1c-57.6,9.31-74.02-10.29-74.02-10.29,0,0,8.23,3.05,23.04,1.65-38.97-22.06-50.98-45.53-50.98-45.53,0,0,52.45,44.61,101.96,54.17ZM770.48,475.13c-47.43,18.01-85.29-15.99-85.29-15.99,0,0,9.56,3.98,25.24,4.35-24.33-17.95-28.74-39.28-28.74-39.28,0,0,39.71,38.05,88.79,50.92ZM712.03,428.56s11.24,3.17,26.23,3.92c-28.43-12.01-36.76-27.21-36.76-27.21,53.19,31.37,124.02,15.99,124.02,15.99-51.22,31.03-81.13,31.03-113.48,7.29ZM878.57,342.04s-19.24,73.04-112.13,66.91c18.38-1.96,32.9-13.6,32.9-13.6,0,0-46.14,4.04-79.23-5.51,87.13,1.84,158.45-47.79,158.45-47.79Z"/>
    </g>
  </g>
  <g>
    <path class="cls-4" d="M669.71,611.83l-4.97-1.79c-19.45-7.01-38.77-12.35-59.05-16.34l-3.21-.63-2.32,2.31c-4.91,4.87-9.92,10.04-14.94,15.41.71-4.6,1.41-9.1,2.11-13.53l1.01-6.43-6.48-.65c-13.52-1.36-27.19-2.06-40.63-2.06-6.77,0-13.67.17-20.5.52l-2.82.14-1.74,2.23c-5.79,7.45-11.8,15.3-17.86,23.33l-1.27,1.68.66,53.85c-4.05-24.05-8.15-47.77-12.27-70.97l-1.1-6.2-6.18,1.24c-17.89,3.58-35,8.2-52.28,14.1l-4.31,1.47,1.21,40.73,2.87-.84c-2.03,16.06-3.9,30.66-5.65,44.3l-1.82-58.05-2.44-1.78c-5.92-4.32-11.94-8.22-17.9-11.61l-2.84-1.62-2.93,1.45c-22.37,11.04-42.98,23.78-63.02,38.94l-2.45,1.85v33s5.4-3.36,5.4-3.36l.32,53.1c-.11.01-5.73.72-5.73.72v30.44h129.4l-1.13-41.9-2.67.14.08-.74c5.33-.4,11.01-.78,17.57-1.19.05.37.11.73.16,1.09l-2.75.11.9,42.48h99.42l1.85-2.39c4.78-6.16,9.29-11.91,13.72-17.46,5.07,6.6,9.43,12.25,13.5,17.48l1.85,2.38h49.8l1.84-2.08c1.45-1.64,2.9-3.27,4.35-4.87l-.21,6.95h45.93l1.08-35.28c4,.54,7.99,1.11,11.96,1.69l-.81,33.59h46.07v-30.44s-5.46-.69-5.49-.69c-6-28.5-11.54-59.42-17.34-96.86l-.43-2.76-2.36-1.5c-15.78-10.02-31.67-18.68-48.58-26.46l-8.45-3.89-6.15-2.33Z"/>
    <g class="cls-15">
      <path class="cls-9" d="M332.76,751.77c2.3-.29,3.45-.43,5.76-.71-.14-23.18-.28-46.35-.42-69.53-2.14,1.28-3.21,1.93-5.34,3.25,0-7.54,0-11.3,0-18.84,19.56-14.79,40.04-27.47,62.03-38.33,5.94,3.38,11.79,7.21,17.31,11.24.67,21.35,1.34,42.7,2.01,64.05-3.97,5.35-8,10.67-12.11,15.92,3.01,8.33,5.96,16.68,8.85,25.05,2.55-.2,3.82-.29,6.38-.48.28,9.07.57,18.15.85,27.22h-37.62c-.23-8.02-.46-16.03-.69-24.05,1.67-.16,2.5-.24,4.17-.39-2.3-6.24-4.65-12.46-7.04-18.67-5.35.95-8.02,1.45-13.35,2.48.17,7.27.26,10.91.43,18.18,2.32-.25,3.48-.37,5.81-.6.2,7.69.4,15.38.59,23.06-12.54,0-25.08,0-37.62,0,0-7.54,0-11.3,0-18.84ZM388.15,697.69c-.39-12.68-.77-25.36-1.16-38.04-8.4,3.43-16.68,7.15-24.82,11.15.27,11.41.53,22.81.8,34.22,8.33-2.64,16.73-5.08,25.18-7.33ZM415.22,743.54c1.81-.13,2.72-.2,4.53-.33,4.51-34.1,8.88-68.22,13.18-102.34-1.7.48-2.55.72-4.24,1.21-.28-9.4-.56-18.81-.84-28.21,16.95-5.79,33.94-10.37,51.5-13.89,8.24,46.37,16.04,92.81,23.49,139.31,1.83-.04,2.75-.06,4.58-.1.12,10.47.24,20.94.36,31.41-11.2,0-22.4,0-33.59,0-.21-10.13-.43-20.26-.64-30.4,1.42-.06,2.13-.08,3.55-.14-.79-5.4-1.18-8.1-1.97-13.48-9.49.56-18.98,1.17-28.46,1.93-.53,5.23-.8,7.84-1.33,13.04,1.42-.08,2.12-.12,3.54-.2.26,9.75.53,19.49.79,29.24h-33.59c-.28-9.02-.57-18.05-.85-27.07ZM469.63,693.23c-3.01-18.57-6.08-37.13-9.2-55.68-1.38.28-2.07.42-3.45.71-2.15,19.08-4.3,38.17-6.44,57.25,6.35-.86,12.72-1.62,19.09-2.28ZM509.42,735.66c15.46-.28,30.92-.38,46.38-.29.05-11.75.1-23.5.15-35.24-11.4-.21-22.81-.12-34.2.16-5.84-7.16-11.76-14.25-17.78-21.25-.25-20.32-.5-40.65-.74-60.97,5.89-7.79,11.82-15.55,17.81-23.27,20.19-1.02,40.09-.52,60.2,1.51-1.8,11.48-3.57,22.96-5.32,34.44-15.19-1.06-30.28-1.44-45.51-1.15.05,11.75.09,23.5.14,35.26,11.59-.23,23.19-.16,34.77.34,5.79,7.52,11.53,15.07,17.25,22.64-.26,20.3-.51,40.6-.77,60.91-5.81,7.24-11.55,14.54-17.24,21.88h-59.46c1.43-11.65,2.88-23.3,4.33-34.95ZM584.66,748.78c.59-43.41,1.18-86.82,1.77-130.23,5.89-6.39,11.91-12.67,18.08-18.79,19.88,3.91,39.09,9.22,58.15,16.09-1.91,9.85-3.8,19.71-5.67,29.57-14.52-4-29.08-7.32-43.9-10.01-.71,33.8-1.42,67.61-2.13,101.41,8.91.39,17.81.86,26.71,1.4.31-11.34.62-22.68.93-34.02-4.75-.59-7.13-.87-11.89-1.39,1.85-10.77,3.71-21.53,5.61-32.29,11.14,1.92,22.24,4.14,33.23,6.79-.76,24.69-1.53,49.38-2.29,74.08-6.05,6.28-11.95,12.7-17.73,19.23-14.67,0-29.34,0-44.01,0-5.65-7.25-11.25-14.53-16.84-21.83ZM661.48,742.94c1.81.13,2.72.19,4.54.32,6.12-30.59,12.45-61.13,19.02-91.62-1.65-.62-2.48-.93-4.14-1.54.28-8.82.56-17.63.84-26.45,16.63,7.66,32.4,16.26,47.85,26.07,5.26,33.99,11.1,67.86,18.31,101.49,1.78.22,2.67.33,4.44.55v18.84c-11.2,0-22.4,0-33.59,0,.18-7.55.37-15.1.55-22.65,1.39.15,2.09.22,3.48.37-.57-4.03-.86-6.06-1.43-10.16-9.27-1.43-18.56-2.73-27.86-3.93-.8,4.39-1.21,6.6-2.01,11.04,1.4.12,2.11.18,3.51.31-.25,8.34-.51,16.67-.76,25.01h-33.59c.28-9.22.57-18.45.85-27.67ZM717.37,711.98c-2.18-15.57-4.27-31.16-6.28-46.76-1.29-.58-1.93-.87-3.23-1.44-3,14.51-5.96,29.03-8.88,43.56,7.4,1.75,11.08,2.67,18.39,4.63Z"/>
      <path class="cls-11" d="M295.27,805.03s211.6-233.99,457.07-46.95c49.78-48.21,48.71-123.87,48.71-123.87l-311.23-99.35-203.36,90.89,8.81,179.28Z"/>
      <path class="cls-1" d="M299.7,748.63s211.6-233.99,457.07-46.95c49.78-48.21,48.71-123.87,48.71-123.87l-311.23-99.35-203.36,90.89,8.81,179.28Z"/>
    </g>
  </g>
  <g>
    <path class="cls-10" d="M670.32,823.88v-11.1h-3.9v11.1h-34.82v-12.68h2.13v-4.39h-5.06v4.39h2.13v12.68h-18.66v-1.03l-.21,1.03h-45.95v-11.1h-3.9v11.1h-17.2v-12.68h2.12l4.78-22.32h-.93v-10.85l-2.34,11.71h-8.27v21.46h2.13v12.68h-18.66v-12.68h2.13v-21.46h-8.96v13.58l-4.11,3.56,1.67,4.32h3.1v12.68h-35.98v-12.68h2.13v-22.32h-2.13v-12.68h27.58l6.63,5.71v-5.71h57.75l7.5,35h3.04v-22.32h-2.13v-12.68h18.66v12.68h-2.13v21.46h15.79v-21.46h-2.13v-12.68h18.66v12.68h-2.13v4.39h5.06v-4.39h-2.13v-12.68h18.66v12.68h-2.13v22.32h3.22l4.78-22.32h-.93v-12.68h22.69l7.5,35h2.12v12.68h-17.2ZM499.31,811.2l-.47-1.22h-.72v1.22h1.19ZM668.75,799.25l-.39-1.99-.38,1.99h.77ZM564.43,799.25l-.39-1.99-.38,1.99h.77ZM502.52,796.44v-6.71h-4.39v6.71h4.39ZM454.32,823.88l-7.72-6.73v-34.3l7.73-6.66h18.56l7.73,6.66v34.29l-7.72,6.73h-18.58ZM466.23,810.35v-20.61h-5.24v20.61h5.24ZM427.03,823.88v-7.44l-.44,1.22h-9.92l-.44-1.22v7.44h-18.66v-12.68h2.13v-22.32h-2.13v-12.68h17.93l6.14,17.54,6.1-17.54h17.94v12.68h-2.13v22.32h2.13v12.68h-18.66ZM429.16,811.2v-.68l-.25.68h.25ZM414.35,811.2l-.25-.68v.68h.25Z"/>
    <path class="cls-4" d="M675.87,778.7l7.5,35h1.65v7.68h-12.2v-7.68h1.28l-.61-3.41h-10.24l-.61,3.41h1.28v7.68h-12.2v-7.68h1.65l5.85-27.32h-1.52v-7.68h18.17M664.95,801.75h6.83l-2.8-14.51h-1.22l-2.81,14.51M647.76,778.7v7.68h-2.13v27.32h2.13v7.68h-13.66v-7.68h2.13v-9.39h-10.06v9.39h2.13v7.68h-13.66v-7.68h2.13v-27.32h-2.13v-7.68h13.66v7.68h-2.13v9.39h10.06v-9.39h-2.13v-7.68h13.66M598.12,778.7v7.68h-2.13v26.46h15.61l-1.71,8.54h-25.43v-7.68h2.13v-27.32h-2.13v-7.68h13.66M571.54,778.7l7.5,35h1.65v7.68h-12.2v-7.68h1.28l-.61-3.41h-10.24l-.61,3.41h1.28v7.68h-12.2v-7.68h1.65l5.85-27.32h-1.52v-7.68h18.17M560.63,801.75h6.83l-2.8-14.51h-1.22l-2.81,14.51M548.19,778.7l-1.71,8.54h-8.72v26.46h2.13v7.68h-13.66v-7.68h2.13v-26.46h-10.06v-8.54h29.88M508.25,778.7l6.16,5.3v18.17l-4.57,3.96,2.93,7.56h2.32v7.68h-13.66v-7.68h1.52l-2.38-6.22h-4.94v6.22h2.13v7.68h-13.66v-7.68h2.13v-27.32h-2.13v-7.68h24.15M495.63,798.94h9.39v-11.71h-9.39v11.71M471.97,778.7l6.16,5.3v32.01l-6.16,5.37h-16.71l-6.16-5.37v-32.01l6.16-5.3h16.71M458.49,812.85h10.24v-25.61h-10.24v25.61M443.19,778.7v7.68h-2.13v27.32h2.13v7.68h-13.66v-7.68h2.13v-17.5l-6.83,18.96h-6.4l-6.83-18.96v17.5h2.13v7.68h-13.66v-7.68h2.13v-27.32h-2.13v-7.68h13.66l7.93,22.62,7.87-22.62h13.66M679.91,773.7h-70.26v17.68h2.13v16.46h-10.79v-16.46h2.13v-17.68h-23.66v17.68h2.13v10.4l-5.17-24.13-.85-3.95h-62.27v2.76l-1.8-1.55-1.41-1.21h-31v4.55l-3.87-3.33-1.41-1.21h-20.42l-1.41,1.21-3.81,3.28v-4.49h-22.21l-1.17,3.36-3.16,9.09-3.19-9.1-1.17-3.35h-22.2v17.68h2.13v17.32h-2.13v17.68h23.66v-6.22h5.79v6.22h23.66v-4.53l3.79,3.3,1.41,1.23h20.45l1.41-1.23,3.85-3.35v4.58h40.98v-17.68h-3.89l-.42-1.09,1.92-1.66,1.73-1.5v-12.22h3.96v16.46h-2.13v17.68h168.78v-17.68h-2.6l-6.65-31.05-.85-3.95h0ZM652.7,791.38h.34l-2.41,11.26v-11.26h2.07ZM542.76,792.24h5.77l-3.53,16.46h-2.24v-16.46h0ZM463.49,792.24h.24v15.61h-.24v-15.61h0Z"/>
  </g>
  <g>
    <g class="cls-7">
      <path class="cls-12" d="M473.27,613.64c6.13-4.64,5.67-19.94,0-33.09-6.21-14.4-18.37-26.36-27.21-22.79-9.1,3.68-4.55,27.52,6.1,29.63,0,0-10.56-17.9-.08-24.89-2.88,2.25-1.02,7-1.02,7,0,0,7.17-2.63,8.98,7.57-7.54-5.79-5.24,8.64,2.02,17.74-6.08,0-12.85-2.16-18.12-6.98-.08,5.33,8.28,11.11,8.28,11.11-9.67,6.65-19.15,5.74-28.49-1.32-1.38,14.74,10.29,29.72,28.06,21.38-16.79-1.96-15.69-14.46-15.69-14.46.49,1.96,2.55,3.72,5.76,4.53,1.84-6.99,18.14-11.15,21.94-3.43,0,0,2.71-.18,2.25-5.47,7.22,11.53-4.64,11.72-4.64,11.72,0,0,6.35,5.91,11.86,1.75Z"/>
      <path class="cls-12" d="M442.94,597.09c-9.65-5.7-9.83-18.2-9.83-18.2,0,0,2.39,4.82,4.96,6.53.5-1.2,1.16-1.97,1.74-2.46-2.78-4.24-4.62-9.71-4.87-16.57-12.68,4.6-20.04,30.61,8,30.7Z"/>
      <path class="cls-12" d="M627.84,585.42c2.57-1.71,4.96-6.53,4.96-6.53,0,0-.18,12.5-9.83,18.2,28.03-.09,20.68-26.1,8-30.7-.25,6.86-2.09,12.33-4.87,16.57.58.49,1.25,1.25,1.74,2.46Z"/>
      <path class="cls-12" d="M592.64,580.55c-5.67,13.15-6.13,28.45,0,33.09,5.51,4.17,11.86-1.75,11.86-1.75,0,0-11.86-.18-4.64-11.72-.46,5.28,2.25,5.47,2.25,5.47,3.8-7.72,20.1-3.55,21.94,3.43,3.21-.81,5.27-2.57,5.76-4.53,0,0,1.1,12.5-15.69,14.46,17.77,8.33,29.44-6.65,28.06-21.38-9.34,7.06-18.83,7.97-28.49,1.32,0,0,8.36-5.78,8.28-11.11-5.26,4.82-12.04,6.98-18.12,6.98,7.26-9.1,9.56-23.53,2.02-17.74,1.81-10.2,8.98-7.57,8.98-7.57,0,0,1.86-4.75-1.02-7,10.48,6.99-.08,24.89-.08,24.89,10.65-2.11,15.2-25.95,6.1-29.63-8.84-3.57-20.99,8.4-27.21,22.79Z"/>
      <path class="cls-5" d="M473.85,619.24l4.47-12.19s-1.47,3.43-5.94,4.84c7.72-13.97-7.23-54.77-21.89-46.2,0,0-.76-1.1,1.59-3.2.8-.7,1.58-1.06,1.58-1.06-6.13-2.78-17.43,2.85-4.62,24.63,2.91,5.15-12.55-10.19-12.55-10.19,0,0-1.73,1.8-2.8,4.12,0,0-.22.27-.59-1.09-1.1-2.97-.74-6.77-.74-6.77,0,0-8.44,10.75,2.4,24.02l-3.59,3.62s-1.16,17.4,18.72,20.05c19.88,2.65,1.59-3.78,1.59-3.78,0,0-.91-.16-2.29-.56-3.93-1.13-11.68-4.18-13.09-10.93l-.29-2.76,4.5.6.36-.28c-.92,1.81-1.51,4.02-1.51,6.73l34.68,10.42ZM455.1,574.7c4.96,5.51,6.07,12.38,6.07,12.38,0,0-1.9,1.47-1.59,4.84-8.44-6.47-4.47-17.22-4.47-17.22ZM452.65,594.24s-4.18.48-7.89,3.15l-2.16-7.81s6.56,4.29,10.05,4.66Z"/>
      <path class="cls-5" d="M626.74,608.83c0-2.71-.59-4.92-1.51-6.73l.36.28,4.5-.6-.29,2.76c-1.41,6.75-9.16,9.8-13.09,10.93-1.38.4-2.29.56-2.29.56,0,0-18.29,6.43,1.59,3.78,19.88-2.65,18.72-20.05,18.72-20.05l-3.59-3.62c10.84-13.27,1.08-16.16,1.08-16.16-1.08-2.31-2.8-4.12-2.8-4.12,0,0-15.45,15.34-12.55,10.19,12.81-21.78,1.5-27.4-4.62-24.63,0,0,.78.37,1.58,1.06,2.35,2.1,1.59,3.2,1.59,3.2-14.66-8.58-29.61,32.23-21.89,46.2-4.47-1.41-5.94-4.84-5.94-4.84l4.47,12.19,34.68-10.42ZM606.33,591.92c.31-3.37-1.59-4.84-1.59-4.84,0,0,1.1-6.86,6.07-12.38,0,0,3.97,10.75-4.47,17.22ZM623.3,589.59l-2.16,7.81c-3.71-2.68-7.89-3.15-7.89-3.15,3.49-.37,10.05-4.66,10.05-4.66Z"/>
    </g>
    <path class="cls-5" d="M434.77,596.14l-3.59,3.62s-6.08,18.04,13.81,20.69c8.7,1.16,13.82-1.08,13.82-1.08,0,0-19.18-1.11-22.69-14.83l-.29-2.76,3.94,2.69s4.42,3.52,11.63,4.84c-3.74-3.93-8.78-19.73-8.78-19.73"/>
    <path class="cls-5" d="M623.3,588.11s-1.42,10.78-7.01,18.74c7.72-2.02,9.65-1.77,15.4-10.87l3-5.38"/>
    <path class="cls-5" d="M634.69,583.99s12.18,16.81,5.17,26.79c-7.01,9.98-9.7,10.28-23.29,9.24,5.67-3.3,19.21-8.52,15.41-26.53"/>
  </g>
</svg>